<svg width="19" height="20" viewBox="0 0 19 20" fill="none" xmlns="http://www.w3.org/2000/svg">
<path d="M18.154 6.13393C18.0216 6.00057 17.8641 5.89482 17.6905 5.82278C17.5169 5.75075 17.3308 5.71387 17.1429 5.71429H14.2857V5C14.2857 3.67392 13.7589 2.40215 12.8212 1.46447C11.8836 0.526784 10.6118 0 9.28571 0C7.95963 0 6.68786 0.526784 5.75018 1.46447C4.8125 2.40215 4.28571 3.67392 4.28571 5V5.71429H1.42857C1.04969 5.71429 0.686328 5.8648 0.418419 6.13271C0.15051 6.40061 0 6.76398 0 7.14286V16.7857C0 18.5268 1.47321 20 3.21429 20H15.3571C16.1993 20.0003 17.0082 19.671 17.6107 19.0826C17.9139 18.7933 18.1554 18.4456 18.3205 18.0604C18.4856 17.6752 18.571 17.2606 18.5714 16.8415V7.14286C18.572 6.95544 18.5354 6.76977 18.4638 6.59659C18.3921 6.42341 18.2868 6.26615 18.154 6.13393ZM5.71429 5C5.71429 4.0528 6.09056 3.14439 6.76033 2.47462C7.43011 1.80485 8.33851 1.42857 9.28571 1.42857C10.2329 1.42857 11.1413 1.80485 11.8111 2.47462C12.4809 3.14439 12.8571 4.0528 12.8571 5V5.71429H5.71429V5Z" fill="#049569"/>
</svg>
