<svg width="12" height="13" viewBox="0 0 12 13" fill="none" xmlns="http://www.w3.org/2000/svg">
<path d="M6 0.734741C5.21207 0.734741 4.43185 0.891757 3.7039 1.19682C2.97595 1.50189 2.31451 1.94904 1.75736 2.51273C0.632141 3.65115 0 5.19519 0 6.80516C0 8.41514 0.632141 9.95918 1.75736 11.0976C2.31451 11.6613 2.97595 12.1084 3.7039 12.4135C4.43185 12.7186 5.21207 12.8756 6 12.8756C7.5913 12.8756 9.11742 12.236 10.2426 11.0976C11.3679 9.95918 12 8.41514 12 6.80516C12 6.00798 11.8448 5.21861 11.5433 4.48211C11.2417 3.74562 10.7998 3.07642 10.2426 2.51273C9.68549 1.94904 9.02406 1.50189 8.2961 1.19682C7.56815 0.891757 6.78793 0.734741 6 0.734741ZM8.52 9.35474L5.4 7.41221V3.76995H6.3V6.92657L9 8.56559L8.52 9.35474Z" fill="#1DB954"/>
<path d="M6 0.734741C5.21207 0.734741 4.43185 0.891757 3.7039 1.19682C2.97595 1.50189 2.31451 1.94904 1.75736 2.51273C0.632141 3.65115 0 5.19519 0 6.80516C0 8.41514 0.632141 9.95918 1.75736 11.0976C2.31451 11.6613 2.97595 12.1084 3.7039 12.4135C4.43185 12.7186 5.21207 12.8756 6 12.8756C7.5913 12.8756 9.11742 12.236 10.2426 11.0976C11.3679 9.95918 12 8.41514 12 6.80516C12 6.00798 11.8448 5.21861 11.5433 4.48211C11.2417 3.74562 10.7998 3.07642 10.2426 2.51273C9.68549 1.94904 9.02406 1.50189 8.2961 1.19682C7.56815 0.891757 6.78793 0.734741 6 0.734741ZM8.52 9.35474L5.4 7.41221V3.76995H6.3V6.92657L9 8.56559L8.52 9.35474Z" fill="#1DB954"/>
</svg>
