<svg width="16" height="12" viewBox="0 0 16 12" fill="none" xmlns="http://www.w3.org/2000/svg">
<path d="M12.22 11.842C11.224 11.842 10.39 11.488 9.718 10.78C9.046 10.072 8.71 9.028 8.71 7.648C8.71 6.484 8.932 5.446 9.376 4.534C9.832 3.622 10.42 2.836 11.14 2.176C11.872 1.516 12.652 1.006 13.48 0.645999L14.902 1.78C14.626 1.912 14.23 2.164 13.714 2.536C13.21 2.896 12.748 3.334 12.328 3.85C11.908 4.366 11.698 4.912 11.698 5.488C11.83 5.356 12.034 5.266 12.31 5.218C12.598 5.158 12.874 5.128 13.138 5.128C13.762 5.128 14.35 5.374 14.902 5.866C15.466 6.346 15.748 7.126 15.748 8.206C15.748 9.322 15.406 10.21 14.722 10.87C14.05 11.518 13.216 11.842 12.22 11.842ZM3.616 11.842C2.62 11.842 1.786 11.488 1.114 10.78C0.442 10.072 0.106 9.028 0.106 7.648C0.106 6.484 0.328 5.446 0.772 4.534C1.228 3.622 1.816 2.836 2.536 2.176C3.268 1.516 4.048 1.006 4.876 0.645999L6.298 1.78C6.022 1.912 5.626 2.164 5.11 2.536C4.606 2.896 4.144 3.334 3.724 3.85C3.304 4.366 3.094 4.912 3.094 5.488C3.226 5.356 3.43 5.266 3.706 5.218C3.994 5.158 4.27 5.128 4.534 5.128C5.158 5.128 5.746 5.374 6.298 5.866C6.862 6.346 7.144 7.126 7.144 8.206C7.144 9.322 6.802 10.21 6.118 10.87C5.446 11.518 4.612 11.842 3.616 11.842Z" fill="#1DB954"/>
</svg>
