<svg width="24" height="24" viewBox="0 0 24 24" fill="none" xmlns="http://www.w3.org/2000/svg">
<path d="M11.9353 0C12.6315 0 13.2991 0.276562 13.7914 0.768845C14.2837 1.26113 14.5603 1.92881 14.5603 2.625C14.5603 3.32119 14.2837 3.98887 13.7914 4.48116C13.2991 4.97344 12.6315 5.25 11.9353 5.25C11.2391 5.25 10.5714 4.97344 10.0791 4.48116C9.58682 3.98887 9.31026 3.32119 9.31026 2.625C9.31026 1.92881 9.58682 1.26113 10.0791 0.768845C10.5714 0.276562 11.2391 0 11.9353 0ZM6.2212 6.74063C6.37589 6.13125 6.92432 5.625 7.63682 5.625C8.21339 5.625 8.6962 5.9625 8.93526 6.42188C9.49776 7.50938 10.6321 8.25 11.9353 8.25C13.2384 8.25 14.3728 7.50938 14.9353 6.42188C15.1743 5.9625 15.6571 5.625 16.2337 5.625C16.9509 5.625 17.4993 6.13125 17.6493 6.74063C17.9774 8.04375 19.1587 9.00469 20.5603 9.00469C21.0665 9.00469 21.5446 8.87813 21.9571 8.65781C22.3509 8.45156 22.8431 8.44688 23.2509 8.7C23.8603 9.075 24.0524 9.87188 23.6821 10.4813L18.6712 18.75H5.19932L0.188386 10.4813C-0.181926 9.87188 0.0102612 9.075 0.619636 8.7C1.02745 8.45156 1.51964 8.45156 1.91339 8.65781C2.33057 8.87813 2.80401 9.00469 3.31026 9.00469C4.71182 9.00469 5.89307 8.04375 6.2212 6.74063ZM5.18526 20.25H18.6853L20.6259 22.1906C20.8228 22.3875 20.9353 22.6594 20.9353 22.9406C20.9353 23.5266 20.4618 24 19.8759 24H3.99464C3.4087 24 2.93526 23.5266 2.93526 22.9406C2.93526 22.6594 3.04776 22.3875 3.24464 22.1906L5.18526 20.25Z" fill="#1DB954"/>
</svg>
