<svg width="27" height="24" viewBox="0 0 27 24" fill="none" xmlns="http://www.w3.org/2000/svg">
<path d="M14.6613 24H11.9947V4L9.36801 1.29333L10.6613 0L13.328 2.66667L15.9947 0L17.328 1.33333L14.6613 4V24ZM6.66135 4C5.26294 4.00167 3.90043 4.44287 2.76647 5.26122C1.63251 6.07957 0.784465 7.23365 0.342248 8.5603C-0.0999685 9.88695 -0.113987 11.319 0.302175 12.6541C0.718337 13.9891 1.54362 15.1596 2.66135 16V18.6667C2.66135 21.6133 5.04801 24 7.99468 24C8.95468 24 9.84801 23.7467 10.6213 23.3333L10.6613 23.28V5.33333C9.54135 4.49333 8.16801 4 6.66135 4ZM5.99468 12.6667L3.99468 10.6667L5.99468 8.66667L7.99468 10.6667L5.99468 12.6667ZM26.6614 10.6667C26.6614 6.98667 23.6747 4 19.9947 4C18.5013 4 17.128 4.49333 15.9947 5.33333V23.28C16.7813 23.7467 17.688 24 18.6613 24C21.608 24 23.9947 21.6133 23.9947 18.6667V16C25.608 14.7867 26.6614 12.8533 26.6614 10.6667ZM20.6613 12.6667L18.6613 10.6667L20.6613 8.66667L22.6614 10.6667L20.6613 12.6667Z" fill="black"/>
</svg>
