<svg width="24" height="24" viewBox="0 0 24 24" fill="none" xmlns="http://www.w3.org/2000/svg">
<path d="M0 21.2571V8.91428C0 8.48 0.1065 8.06857 0.3195 7.68C0.5325 7.29143 0.826 6.97143 1.2 6.72L10.2 0.548571C10.725 0.182857 11.325 0 12 0C12.675 0 13.275 0.182857 13.8 0.548571L22.8 6.72C23.175 6.97143 23.469 7.29143 23.682 7.68C23.895 8.06857 24.001 8.48 24 8.91428V21.2571C24 22.0114 23.706 22.6574 23.118 23.195C22.53 23.7326 21.824 24.0009 21 24H16.5C16.075 24 15.719 23.8683 15.432 23.605C15.145 23.3417 15.001 23.0162 15 22.6286V15.7714C15 15.3829 14.856 15.0574 14.568 14.795C14.28 14.5326 13.924 14.4009 13.5 14.4H10.5C10.075 14.4 9.719 14.5317 9.432 14.795C9.145 15.0583 9.001 15.3838 9 15.7714V22.6286C9 23.0171 8.856 23.3431 8.568 23.6064C8.28 23.8697 7.924 24.0009 7.5 24H3C2.175 24 1.469 23.7317 0.882 23.195C0.295 22.6583 0.001 22.0123 0 21.2571Z" fill="white"/>
</svg>
