<svg width="22" height="24" viewBox="0 0 22 24" fill="none" xmlns="http://www.w3.org/2000/svg">
<path d="M1.55996 22.44H7.31934V14.5201C7.31934 14.1634 7.44049 13.8644 7.68281 13.6231C7.92408 13.3808 8.22307 13.2597 8.57979 13.2597H13.2597C13.6164 13.2597 13.9159 13.3808 14.1582 13.6231C14.3995 13.8644 14.5201 14.1634 14.5201 14.5201V22.44H20.2795V8.88086C20.2795 8.7207 20.2447 8.57511 20.175 8.44407C20.1053 8.31303 20.0101 8.19863 19.8895 8.10088L11.4907 1.77056C11.3305 1.6312 11.1402 1.56152 10.9197 1.56152C10.6993 1.56152 10.5095 1.6312 10.3503 1.77056L1.94995 8.10088C1.83035 8.20071 1.7352 8.31511 1.66448 8.44407C1.59376 8.57303 1.55892 8.71862 1.55996 8.88086V22.44ZM0 22.44V8.88086C0 8.48151 0.0894377 8.10348 0.268313 7.74677C0.447189 7.39006 0.693663 7.09626 1.00773 6.86539L9.40812 0.503868C9.84803 0.167956 10.3503 0 10.915 0C11.4798 0 11.9852 0.167956 12.4313 0.503868L20.8317 6.86383C21.1468 7.0947 21.3933 7.38902 21.5711 7.74677C21.75 8.10348 21.8395 8.48151 21.8395 8.88086V22.44C21.8395 22.8581 21.684 23.2226 21.373 23.5336C21.0621 23.8445 20.6976 24 20.2795 24H14.2206C13.8629 24 13.5633 23.8794 13.3221 23.6381C13.0808 23.3958 12.9602 23.0963 12.9602 22.7395V14.8212H8.8793V22.7395C8.8793 23.0973 8.75866 23.3968 8.51739 23.6381C8.27611 23.8794 7.97712 24 7.62041 24H1.55996C1.14189 24 0.77738 23.8445 0.466428 23.5336C0.155476 23.2226 0 22.8581 0 22.44Z" fill="white" fill-opacity="0.5"/>
</svg>
