<svg width="22" height="24" viewBox="0 0 22 24" fill="none" xmlns="http://www.w3.org/2000/svg">
<path d="M0 22.44V8.88086C0 8.48151 0.0894377 8.10348 0.268313 7.74677C0.447189 7.39006 0.693663 7.09626 1.00773 6.86539L9.40812 0.503868C9.84803 0.167956 10.3503 0 10.915 0C11.4798 0 11.9852 0.167956 12.4313 0.503868L20.8317 6.86383C21.1468 7.0947 21.3933 7.38902 21.5711 7.74677C21.75 8.10348 21.8395 8.48151 21.8395 8.88086V22.44C21.8395 22.8581 21.684 23.2226 21.373 23.5336C21.0621 23.8445 20.6976 24 20.2795 24H15.0006C14.6428 24 14.3433 23.8794 14.102 23.6381C13.8608 23.3958 13.7401 23.0963 13.7401 22.7395V15.3001C13.7401 14.9434 13.6195 14.6444 13.3782 14.4031C13.1359 14.1608 12.8364 14.0396 12.4797 14.0396H9.35977C9.00305 14.0396 8.70406 14.1608 8.46279 14.4031C8.22047 14.6444 8.09932 14.9434 8.09932 15.3001V22.7411C8.09932 23.0978 7.97868 23.3968 7.73741 23.6381C7.49613 23.8794 7.19714 24 6.84043 24H1.55996C1.14189 24 0.77738 23.8445 0.466428 23.5336C0.155476 23.2226 0 22.8581 0 22.44Z" fill="white"/>
</svg>
