<svg width="26" height="26" viewBox="0 0 26 26" fill="none" xmlns="http://www.w3.org/2000/svg">
<path d="M1 23.8979V10.4088C1.00018 10.0551 1.08462 9.70658 1.24621 9.39277C1.40779 9.07896 1.64177 8.80904 1.92836 8.60583L12.3738 1.20002C12.5574 1.06984 12.7762 1 13.0005 1C13.2248 1 13.4437 1.06984 13.6273 1.20002L24.0716 8.60583C24.3582 8.80904 24.5922 9.07896 24.7538 9.39277C24.9154 9.70658 24.9998 10.0551 25 10.4088V23.8979C25 24.1902 24.8851 24.4705 24.6805 24.6772C24.4759 24.8839 24.1984 25 23.9091 25H18.0913C17.8019 25 17.5245 24.8839 17.3199 24.6772C17.1153 24.4705 17.0004 24.1902 17.0004 23.8979V17.6449C17.0004 17.3526 16.8854 17.0723 16.6808 16.8656C16.4763 16.6589 16.1988 16.5428 15.9095 16.5428H10.0905C9.80122 16.5428 9.52374 16.6589 9.31916 16.8656C9.11457 17.0723 8.99964 17.3526 8.99964 17.6449V23.8979C8.99964 24.1902 8.8847 24.4705 8.68012 24.6772C8.47553 24.8839 8.19805 25 7.90873 25H2.09091C1.80158 25 1.5241 24.8839 1.31952 24.6772C1.11493 24.4705 1 24.1902 1 23.8979Z" stroke="white" stroke-width="2"/>
</svg>
