<svg width="28" height="20" viewBox="0 0 28 20" fill="none" xmlns="http://www.w3.org/2000/svg">
<path d="M17.4301 0C14.6215 0 12.0872 1.16143 10.2701 3.02714C9.09616 2.7898 7.88554 2.8011 6.71626 3.06031C5.54699 3.31953 4.44501 3.82091 3.48139 4.53213C2.51777 5.24335 1.71389 6.14861 1.12158 7.18956C0.529278 8.23051 0.161694 9.38403 0.0425321 10.5758C-0.07663 11.7675 0.0552752 12.9709 0.429743 14.1086C0.804211 15.2462 1.41293 16.2927 2.21665 17.1806C3.02037 18.0686 4.00125 18.7782 5.09605 19.2638C6.19085 19.7494 7.37527 20.0002 8.57293 20H17.4301C18.7433 20 20.0436 19.7413 21.2569 19.2388C22.4702 18.7362 23.5726 17.9997 24.5011 17.0711C25.4297 16.1425 26.1663 15.0401 26.6689 13.8268C27.1714 12.6136 27.4301 11.3132 27.4301 10C27.4301 8.68678 27.1714 7.38642 26.6689 6.17317C26.1663 4.95991 25.4297 3.85752 24.5011 2.92893C23.5726 2.00035 22.4702 1.26375 21.2569 0.761205C20.0436 0.258658 18.7433 -1.95685e-08 17.4301 0ZM8.57293 18.1829C7.68541 18.1852 6.80624 18.0115 5.98626 17.6719C5.16628 17.3323 4.42177 16.8334 3.79579 16.2043C2.5215 14.9286 1.81864 13.2314 1.81864 11.4286C1.81864 9.62571 2.5215 7.92857 3.79721 6.65286C5.07293 5.37714 6.76864 4.67429 8.57293 4.67429C10.3772 4.67429 12.0729 5.37714 13.3501 6.65286L16.0272 9.33143C16.2148 9.51897 16.3201 9.77334 16.3201 10.0386C16.3201 10.3038 16.2148 10.5582 16.0272 10.7457C15.8397 10.9333 15.5853 11.0386 15.3201 11.0386C15.0548 11.0386 14.8005 10.9333 14.6129 10.7457L11.9358 8.06571C10.1386 6.27143 7.00864 6.27143 5.2115 8.06571C4.31293 8.96571 3.81864 10.1586 3.81864 11.4286C3.81864 12.6986 4.31293 13.8914 5.2115 14.7914C6.33293 15.9114 7.97293 16.3314 9.48436 16.0543C9.94721 16.66 10.4686 17.2186 11.0558 17.7043C10.2659 18.0196 9.42339 18.182 8.57293 18.1829ZM23.2715 15.8414C22.506 16.6107 21.5956 17.2206 20.593 17.636C19.5903 18.0514 18.5153 18.2639 17.4301 18.2614C16.3446 18.2641 15.2693 18.0516 14.2664 17.6363C13.2635 17.2209 12.3529 16.6109 11.5872 15.8414L7.71721 11.9714C7.52967 11.7839 7.42431 11.5295 7.42431 11.2643C7.42431 10.9991 7.52967 10.7447 7.71721 10.5571C7.90476 10.3696 8.15913 10.2642 8.42436 10.2642C8.68959 10.2642 8.94395 10.3696 9.1315 10.5571L13.0015 14.4271C14.1844 15.61 15.7572 16.2614 17.4301 16.2614C19.1029 16.2614 20.6744 15.61 21.8572 14.4271C23.0401 13.2443 23.6915 11.6714 23.6915 10C23.6915 8.32857 23.0401 6.75571 21.8572 5.57286C20.6744 4.39 19.1029 3.73857 17.4301 3.73857C16.1829 3.73857 14.9915 4.10286 13.9758 4.77714C13.4281 4.33416 12.8278 3.96039 12.1886 3.66429C13.6672 2.43857 15.4872 1.73714 17.4315 1.73714C19.6372 1.73714 21.7115 2.59714 23.2729 4.15714C24.8344 5.71714 25.6929 7.79286 25.6929 9.99857C25.6929 12.2043 24.8329 14.2814 23.2715 15.8414Z" fill="black"/>
</svg>
