<svg version="1.0" preserveAspectRatio="xMidYMid meet" viewBox="158.76000000000002 251.09999783 500.58 307.79999734" zoomAndPan="magnify" xmlns:xlink="http://www.w3.org/1999/xlink" xmlns="http://www.w3.org/2000/svg" style="max-height: 500px" width="500.58" height="307.79999734"><defs><g/></defs><rect fill-opacity="1" height="971.999992" y="-80.999999" fill="#ffffff" width="972" x="-81"/><rect fill-opacity="1" height="971.999992" y="-80.999999" fill="#000000" width="972" x="-81"/><g fill-opacity="1" fill="#ffffff"><g transform="translate(155.056841, 549.67325)"><g><path d="M 8.046875 -144.375 C 8.046875 -186.082031 22.257812 -221.382812 50.6875 -250.28125 C 79.113281 -279.175781 113.367188 -293.625 153.453125 -293.625 C 193.773438 -293.625 228.035156 -279.234375 256.234375 -250.453125 C 284.429688 -221.679688 298.53125 -186.320312 298.53125 -144.375 C 298.53125 -102.1875 284.660156 -66.703125 256.921875 -37.921875 C 229.191406 -9.140625 194.703125 5.25 153.453125 5.25 C 111.273438 5.25 76.492188 -9.023438 49.109375 -37.578125 C 21.734375 -66.128906 8.046875 -101.726562 8.046875 -144.375 Z M 79 -144.375 C 79 -129.21875 81.328125 -115.40625 85.984375 -102.9375 C 90.648438 -90.476562 98.804688 -79.9375 110.453125 -71.3125 C 122.109375 -62.6875 136.441406 -58.375 153.453125 -58.375 C 177.921875 -58.375 196.390625 -66.765625 208.859375 -83.546875 C 221.328125 -100.328125 227.5625 -120.601562 227.5625 -144.375 C 227.5625 -167.90625 221.210938 -188.117188 208.515625 -205.015625 C 195.816406 -221.910156 177.460938 -230.359375 153.453125 -230.359375 C 129.679688 -230.359375 111.328125 -221.910156 98.390625 -205.015625 C 85.460938 -188.117188 79 -167.90625 79 -144.375 Z M 79 -144.375"/></g></g></g><g fill-opacity="1" fill="#ffffff"><g transform="translate(391.713322, 549.67325)"><g><path d="M 174.4375 -59.421875 C 184.457031 -59.421875 194.1875 -60.9375 203.625 -63.96875 C 213.0625 -67 219.992188 -69.910156 224.421875 -72.703125 L 231.0625 -77.25 L 259.03125 -21.328125 C 258.09375 -20.628906 256.804688 -19.695312 255.171875 -18.53125 C 253.546875 -17.363281 249.757812 -15.207031 243.8125 -12.0625 C 237.875 -8.914062 231.523438 -6.175781 224.765625 -3.84375 C 218.003906 -1.507812 209.144531 0.585938 198.1875 2.453125 C 187.238281 4.316406 175.941406 5.25 164.296875 5.25 C 137.492188 5.25 112.085938 -1.332031 88.078125 -14.5 C 64.078125 -27.664062 44.738281 -45.785156 30.0625 -68.859375 C 15.382812 -91.929688 8.046875 -116.867188 8.046875 -143.671875 C 8.046875 -163.941406 12.351562 -183.398438 20.96875 -202.046875 C 29.59375 -220.691406 41.070312 -236.65625 55.40625 -249.9375 C 69.738281 -263.21875 86.457031 -273.816406 105.5625 -281.734375 C 124.675781 -289.660156 144.253906 -293.625 164.296875 -293.625 C 182.941406 -293.625 200.128906 -291.410156 215.859375 -286.984375 C 231.585938 -282.554688 242.710938 -278.128906 249.234375 -273.703125 L 259.03125 -267.0625 L 231.0625 -211.140625 C 229.425781 -212.535156 226.976562 -214.222656 223.71875 -216.203125 C 220.457031 -218.179688 213.929688 -220.800781 204.140625 -224.0625 C 194.359375 -227.332031 184.457031 -228.96875 174.4375 -228.96875 C 158.582031 -228.96875 144.363281 -226.398438 131.78125 -221.265625 C 119.195312 -216.140625 109.234375 -209.382812 101.890625 -201 C 94.554688 -192.613281 88.960938 -183.582031 85.109375 -173.90625 C 81.265625 -164.238281 79.34375 -154.394531 79.34375 -144.375 C 79.34375 -122.46875 87.554688 -102.832031 103.984375 -85.46875 C 120.421875 -68.101562 143.90625 -59.421875 174.4375 -59.421875 Z M 174.4375 -59.421875"/></g></g></g></svg>