<svg width="21" height="22" viewBox="0 0 21 22" fill="none" xmlns="http://www.w3.org/2000/svg">
<path d="M18.6154 16.9231V5.07692C18.6154 4.85251 18.7045 4.63729 18.8632 4.4786C19.0219 4.31992 19.2371 4.23077 19.4615 4.23077C19.6859 4.23077 19.9012 4.31992 20.0598 4.4786C20.2185 4.63729 20.3077 4.85251 20.3077 5.07692V16.9231C20.3077 17.1475 20.2185 17.3627 20.0598 17.5214C19.9012 17.6801 19.6859 17.7692 19.4615 17.7692C19.2371 17.7692 19.0219 17.6801 18.8632 17.5214C18.7045 17.3627 18.6154 17.1475 18.6154 16.9231ZM16.0769 18.6154V3.38462C16.0769 3.1602 16.1661 2.94498 16.3247 2.78629C16.4834 2.62761 16.6986 2.53846 16.9231 2.53846C17.1475 2.53846 17.3627 2.62761 17.5214 2.78629C17.6801 2.94498 17.7692 3.1602 17.7692 3.38462V18.6154C17.7692 18.8398 17.6801 19.055 17.5214 19.2137C17.3627 19.3724 17.1475 19.4615 16.9231 19.4615C16.6986 19.4615 16.4834 19.3724 16.3247 19.2137C16.1661 19.055 16.0769 18.8398 16.0769 18.6154ZM-9.53674e-06 19.6271V2.37293C0.00069046 1.74381 0.250919 1.14065 0.69578 0.695789C1.14064 0.250929 1.7438 0.000699885 2.37292 0L12.8578 0C13.4869 0.000699885 14.0901 0.250929 14.535 0.695789C14.9798 1.14065 15.2301 1.74381 15.2308 2.37293V19.6271C15.2301 20.2562 14.9798 20.8594 14.535 21.3042C14.0901 21.7491 13.4869 21.9993 12.8578 22H2.37292C1.7438 21.9993 1.14064 21.7491 0.69578 21.3042C0.250919 20.8594 0.00069046 20.2562 -9.53674e-06 19.6271Z" fill="#F1F1F1"/>
</svg>
