<svg width="22" height="24" viewBox="0 0 22 24" fill="none" xmlns="http://www.w3.org/2000/svg">
<path d="M6.66485 2.66921C6.31133 2.66921 5.97228 2.80964 5.7223 3.05963C5.47232 3.30961 5.33188 3.64865 5.33188 4.00218C5.33188 4.3557 5.47232 4.69475 5.7223 4.94473C5.97228 5.19471 6.31133 5.33515 6.66485 5.33515C7.01838 5.33515 7.35742 5.19471 7.6074 4.94473C7.85738 4.69475 7.99782 4.3557 7.99782 4.00218C7.99782 3.64865 7.85738 3.30961 7.6074 3.05963C7.35742 2.80964 7.01838 2.66921 6.66485 2.66921ZM2.89255 2.66921C3.16794 1.88871 3.67865 1.21285 4.35428 0.734787C5.02991 0.256724 5.83719 0 6.66485 0C7.49251 0 8.29979 0.256724 8.97542 0.734787C9.65105 1.21285 10.1618 1.88871 10.4372 2.66921H19.9946C20.3481 2.66921 20.6871 2.80964 20.9371 3.05963C21.1871 3.30961 21.3275 3.64865 21.3275 4.00218C21.3275 4.3557 21.1871 4.69475 20.9371 4.94473C20.6871 5.19471 20.3481 5.33515 19.9946 5.33515H10.4372C10.1618 6.11565 9.65105 6.79151 8.97542 7.26957C8.29979 7.74763 7.49251 8.00436 6.66485 8.00436C5.83719 8.00436 5.02991 7.74763 4.35428 7.26957C3.67865 6.79151 3.16794 6.11565 2.89255 5.33515H1.33297C0.979445 5.33515 0.640399 5.19471 0.390418 4.94473C0.140438 4.69475 0 4.3557 0 4.00218C0 3.64865 0.140438 3.30961 0.390418 3.05963C0.640399 2.80964 0.979445 2.66921 1.33297 2.66921H2.89255ZM14.6627 10.667C14.3091 10.667 13.9701 10.8075 13.7201 11.0574C13.4701 11.3074 13.3297 11.6465 13.3297 12C13.3297 12.3535 13.4701 12.6926 13.7201 12.9426C13.9701 13.1925 14.3091 13.333 14.6627 13.333C15.0162 13.333 15.3552 13.1925 15.6052 12.9426C15.8552 12.6926 15.9956 12.3535 15.9956 12C15.9956 11.6465 15.8552 11.3074 15.6052 11.0574C15.3552 10.8075 15.0162 10.667 14.6627 10.667ZM10.8904 10.667C11.1658 9.88653 11.6765 9.21067 12.3521 8.73261C13.0277 8.25455 13.835 7.99782 14.6627 7.99782C15.4903 7.99782 16.2976 8.25455 16.9732 8.73261C17.6489 9.21067 18.1596 9.88653 18.435 10.667H19.9946C20.3481 10.667 20.6871 10.8075 20.9371 11.0574C21.1871 11.3074 21.3275 11.6465 21.3275 12C21.3275 12.3535 21.1871 12.6926 20.9371 12.9426C20.6871 13.1925 20.3481 13.333 19.9946 13.333H18.435C18.1596 14.1135 17.6489 14.7893 16.9732 15.2674C16.2976 15.7455 15.4903 16.0022 14.6627 16.0022C13.835 16.0022 13.0277 15.7455 12.3521 15.2674C11.6765 14.7893 11.1658 14.1135 10.8904 13.333H1.33297C0.979445 13.333 0.640399 13.1925 0.390418 12.9426C0.140438 12.6926 0 12.3535 0 12C0 11.6465 0.140438 11.3074 0.390418 11.0574C0.640399 10.8075 0.979445 10.667 1.33297 10.667H10.8904ZM6.66485 18.6649C6.31133 18.6649 5.97228 18.8053 5.7223 19.0553C5.47232 19.3053 5.33188 19.6443 5.33188 19.9978C5.33188 20.3513 5.47232 20.6904 5.7223 20.9404C5.97228 21.1904 6.31133 21.3308 6.66485 21.3308C7.01838 21.3308 7.35742 21.1904 7.6074 20.9404C7.85738 20.6904 7.99782 20.3513 7.99782 19.9978C7.99782 19.6443 7.85738 19.3053 7.6074 19.0553C7.35742 18.8053 7.01838 18.6649 6.66485 18.6649ZM2.89255 18.6649C3.16794 17.8844 3.67865 17.2085 4.35428 16.7304C5.02991 16.2524 5.83719 15.9956 6.66485 15.9956C7.49251 15.9956 8.29979 16.2524 8.97542 16.7304C9.65105 17.2085 10.1618 17.8844 10.4372 18.6649H19.9946C20.3481 18.6649 20.6871 18.8053 20.9371 19.0553C21.1871 19.3053 21.3275 19.6443 21.3275 19.9978C21.3275 20.3513 21.1871 20.6904 20.9371 20.9404C20.6871 21.1904 20.3481 21.3308 19.9946 21.3308H10.4372C10.1618 22.1113 9.65105 22.7872 8.97542 23.2652C8.29979 23.7433 7.49251 24 6.66485 24C5.83719 24 5.02991 23.7433 4.35428 23.2652C3.67865 22.7872 3.16794 22.1113 2.89255 21.3308H1.33297C0.979445 21.3308 0.640399 21.1904 0.390418 20.9404C0.140438 20.6904 0 20.3513 0 19.9978C0 19.6443 0.140438 19.3053 0.390418 19.0553C0.640399 18.8053 0.979445 18.6649 1.33297 18.6649H2.89255Z" fill="#1DB954"/>
</svg>
