<svg width="9" height="12" viewBox="0 0 9 12" fill="none" xmlns="http://www.w3.org/2000/svg">
<path d="M4.10909 7.2C3.01929 7.2 1.97413 6.82071 1.20353 6.14558C0.432921 5.47045 0 4.55478 0 3.6C0 2.64522 0.432921 1.72955 1.20353 1.05442C1.97413 0.379285 3.01929 0 4.10909 0C5.19889 0 6.24405 0.379285 7.01466 1.05442C7.78526 1.72955 8.21818 2.64522 8.21818 3.6C8.21818 4.55478 7.78526 5.47045 7.01466 6.14558C6.24405 6.82071 5.19889 7.2 4.10909 7.2ZM4.10909 5.4C4.65399 5.4 5.17657 5.21036 5.56187 4.87279C5.94718 4.53523 6.16364 4.07739 6.16364 3.6C6.16364 3.12261 5.94718 2.66477 5.56187 2.32721C5.17657 1.98964 4.65399 1.8 4.10909 1.8C3.56419 1.8 3.04161 1.98964 2.65631 2.32721C2.27101 2.66477 2.05455 3.12261 2.05455 3.6C2.05455 4.07739 2.27101 4.53523 2.65631 4.87279C3.04161 5.21036 3.56419 5.4 4.10909 5.4ZM6.84849 7.05V12L4.10909 9.6L1.3697 12V7.05C2.17243 7.54284 3.12888 7.80722 4.10909 7.80722C5.08931 7.80722 6.04576 7.54284 6.84849 7.05Z" fill="#FFD662"/>
</svg>
