<svg width="19" height="20" viewBox="0 0 19 20" fill="none" xmlns="http://www.w3.org/2000/svg">
<path d="M11.576 15.2706L6.46596 12.4836C5.97545 12.9705 5.35177 13.3013 4.67355 13.4342C3.99532 13.5672 3.29292 13.4964 2.65488 13.2307C2.01685 12.9651 1.47175 12.5164 1.08831 11.9414C0.704863 11.3664 0.500244 10.6908 0.500244 9.99962C0.500244 9.30849 0.704863 8.63283 1.08831 8.05782C1.47175 7.4828 2.01685 7.03419 2.65488 6.76852C3.29292 6.50286 3.99532 6.43204 4.67355 6.56499C5.35177 6.69795 5.97545 7.02873 6.46596 7.51562L11.576 4.72862C11.4007 3.90636 11.5273 3.04848 11.9326 2.31188C12.3378 1.57527 12.9947 1.00915 13.7831 0.717056C14.5714 0.424958 15.4386 0.426396 16.226 0.721109C17.0134 1.01582 17.6683 1.58411 18.0712 2.32206C18.474 3.06001 18.5977 3.9183 18.4197 4.73998C18.2418 5.56165 17.7739 6.29181 17.1019 6.79692C16.4298 7.30204 15.5983 7.54835 14.7596 7.49082C13.9208 7.43329 13.1308 7.07577 12.534 6.48362L7.42396 9.27062C7.52575 9.75096 7.52575 10.2473 7.42396 10.7276L12.534 13.5156C13.1308 12.9235 13.9208 12.566 14.7596 12.5084C15.5983 12.4509 16.4298 12.6972 17.1019 13.2023C17.7739 13.7074 18.2418 14.4376 18.4197 15.2593C18.5977 16.0809 18.474 16.9392 18.0712 17.6772C17.6683 18.4151 17.0134 18.9834 16.226 19.2781C15.4386 19.5728 14.5714 19.5743 13.7831 19.2822C12.9947 18.9901 12.3378 18.424 11.9326 17.6874C11.5273 16.9508 11.4007 16.0929 11.576 15.2706Z" fill="#494849"/>
</svg>
