<svg xmlns="http://www.w3.org/2000/svg" xmlns:xlink="http://www.w3.org/1999/xlink" width="1080" zoomAndPan="magnify" viewBox="0 0 810 1439.999935" height="1920" preserveAspectRatio="xMidYMid meet" version="1.0"><defs><g/></defs><g fill="#ffffff" fill-opacity="1"><g transform="translate(230.720741, 739.038156)"><g><path d="M 23.484375 0 L -2.0625 -60.921875 L 13.59375 -60.921875 L 28.953125 -20.890625 L 44.3125 -60.921875 L 59.96875 -60.921875 L 34.40625 0 Z M 23.484375 0 "/></g></g></g><g fill="#ffffff" fill-opacity="1"><g transform="translate(288.61537, 739.038156)"><g><path d="M 42.75 -17.125 L 15.28125 -17.125 C 15.28125 -14.46875 16.140625 -12.5 17.859375 -11.21875 C 19.585938 -9.9375 21.460938 -9.296875 23.484375 -9.296875 C 25.597656 -9.296875 27.269531 -9.578125 28.5 -10.140625 C 29.726562 -10.710938 31.132812 -11.835938 32.71875 -13.515625 L 42.171875 -8.78125 C 38.222656 -2.1875 31.671875 1.109375 22.515625 1.109375 C 16.804688 1.109375 11.910156 -0.847656 7.828125 -4.765625 C 3.742188 -8.679688 1.703125 -13.394531 1.703125 -18.90625 C 1.703125 -24.414062 3.742188 -29.140625 7.828125 -33.078125 C 11.910156 -37.015625 16.804688 -38.984375 22.515625 -38.984375 C 28.523438 -38.984375 33.410156 -37.25 37.171875 -33.78125 C 40.941406 -30.3125 42.828125 -25.351562 42.828125 -18.90625 C 42.828125 -18.019531 42.800781 -17.425781 42.75 -17.125 Z M 15.65625 -24.375 L 30.046875 -24.375 C 29.753906 -26.34375 28.976562 -27.851562 27.71875 -28.90625 C 26.46875 -29.96875 24.859375 -30.5 22.890625 -30.5 C 20.722656 -30.5 19 -29.929688 17.71875 -28.796875 C 16.4375 -27.660156 15.75 -26.1875 15.65625 -24.375 Z M 15.65625 -24.375 "/></g></g></g><g fill="#ffffff" fill-opacity="1"><g transform="translate(333.144015, 739.038156)"><g><path d="M 4.4375 0 L 4.4375 -37.875 L 17.5 -37.875 L 17.5 -33.890625 L 17.65625 -33.890625 C 21.050781 -37.285156 24.664062 -38.984375 28.5 -38.984375 C 30.375 -38.984375 32.234375 -38.738281 34.078125 -38.25 C 35.921875 -37.757812 37.691406 -36.992188 39.390625 -35.953125 C 41.085938 -34.921875 42.46875 -33.457031 43.53125 -31.5625 C 44.59375 -29.664062 45.125 -27.460938 45.125 -24.953125 L 45.125 0 L 32.046875 0 L 32.046875 -21.421875 C 32.046875 -23.390625 31.414062 -25.109375 30.15625 -26.578125 C 28.90625 -28.054688 27.269531 -28.796875 25.25 -28.796875 C 23.28125 -28.796875 21.492188 -28.03125 19.890625 -26.5 C 18.296875 -24.976562 17.5 -23.285156 17.5 -21.421875 L 17.5 0 Z M 4.4375 0 "/></g></g></g><g fill="#ffffff" fill-opacity="1"><g transform="translate(381.955677, 739.038156)"><g><path d="M 6.640625 -37.875 L 6.640625 -51.984375 L 19.71875 -51.984375 L 19.71875 -37.875 L 27.6875 -37.875 L 27.6875 -27.90625 L 19.71875 -27.90625 L 19.71875 -15.875 C 19.71875 -12.382812 20.703125 -10.640625 22.671875 -10.640625 C 23.160156 -10.640625 23.675781 -10.734375 24.21875 -10.921875 C 24.757812 -11.117188 25.175781 -11.316406 25.46875 -11.515625 L 25.921875 -11.8125 L 29.171875 -1.25 C 26.359375 0.320312 23.15625 1.109375 19.5625 1.109375 C 17.101562 1.109375 14.988281 0.675781 13.21875 -0.1875 C 11.445312 -1.050781 10.101562 -2.207031 9.1875 -3.65625 C 8.28125 -5.101562 7.628906 -6.628906 7.234375 -8.234375 C 6.835938 -9.835938 6.640625 -11.546875 6.640625 -13.359375 L 6.640625 -27.90625 L 1.1875 -27.90625 L 1.1875 -37.875 Z M 6.640625 -37.875 "/></g></g></g><g fill="#ffffff" fill-opacity="1"><g transform="translate(411.12452, 739.038156)"><g><path d="M 1.703125 -30.5 C 1.703125 -39.3125 4.703125 -46.769531 10.703125 -52.875 C 16.710938 -58.976562 23.953125 -62.03125 32.421875 -62.03125 C 40.929688 -62.03125 48.164062 -58.988281 54.125 -52.90625 C 60.082031 -46.832031 63.0625 -39.363281 63.0625 -30.5 C 63.0625 -21.582031 60.128906 -14.082031 54.265625 -8 C 48.410156 -1.925781 41.128906 1.109375 32.421875 1.109375 C 23.503906 1.109375 16.15625 -1.90625 10.375 -7.9375 C 4.59375 -13.96875 1.703125 -21.488281 1.703125 -30.5 Z M 16.6875 -30.5 C 16.6875 -27.300781 17.175781 -24.382812 18.15625 -21.75 C 19.144531 -19.113281 20.867188 -16.882812 23.328125 -15.0625 C 25.796875 -13.238281 28.828125 -12.328125 32.421875 -12.328125 C 37.585938 -12.328125 41.488281 -14.097656 44.125 -17.640625 C 46.757812 -21.191406 48.078125 -25.476562 48.078125 -30.5 C 48.078125 -35.46875 46.734375 -39.734375 44.046875 -43.296875 C 41.359375 -46.867188 37.484375 -48.65625 32.421875 -48.65625 C 27.398438 -48.65625 23.519531 -46.867188 20.78125 -43.296875 C 18.050781 -39.734375 16.6875 -35.46875 16.6875 -30.5 Z M 16.6875 -30.5 "/></g></g></g><g fill="#ffffff" fill-opacity="1"><g transform="translate(475.886739, 739.038156)"><g><path d="M 16.765625 -37.875 L 16.765625 -19.859375 C 16.765625 -16.117188 17.328125 -13.460938 18.453125 -11.890625 C 19.585938 -10.316406 21.507812 -9.53125 24.21875 -9.53125 C 26.925781 -9.53125 28.84375 -10.316406 29.96875 -11.890625 C 31.101562 -13.460938 31.671875 -16.117188 31.671875 -19.859375 L 31.671875 -37.875 L 44.75 -37.875 L 44.75 -16.6875 C 44.75 -10.382812 43.109375 -5.84375 39.828125 -3.0625 C 36.554688 -0.28125 31.351562 1.109375 24.21875 1.109375 C 17.082031 1.109375 11.875 -0.28125 8.59375 -3.0625 C 5.320312 -5.84375 3.6875 -10.382812 3.6875 -16.6875 L 3.6875 -37.875 Z M 16.765625 -37.875 "/></g></g></g><g fill="#ffffff" fill-opacity="1"><g transform="translate(524.329183, 739.038156)"><g><path d="M 6.640625 -37.875 L 6.640625 -51.984375 L 19.71875 -51.984375 L 19.71875 -37.875 L 27.6875 -37.875 L 27.6875 -27.90625 L 19.71875 -27.90625 L 19.71875 -15.875 C 19.71875 -12.382812 20.703125 -10.640625 22.671875 -10.640625 C 23.160156 -10.640625 23.675781 -10.734375 24.21875 -10.921875 C 24.757812 -11.117188 25.175781 -11.316406 25.46875 -11.515625 L 25.921875 -11.8125 L 29.171875 -1.25 C 26.359375 0.320312 23.15625 1.109375 19.5625 1.109375 C 17.101562 1.109375 14.988281 0.675781 13.21875 -0.1875 C 11.445312 -1.050781 10.101562 -2.207031 9.1875 -3.65625 C 8.28125 -5.101562 7.628906 -6.628906 7.234375 -8.234375 C 6.835938 -9.835938 6.640625 -11.546875 6.640625 -13.359375 L 6.640625 -27.90625 L 1.1875 -27.90625 L 1.1875 -37.875 Z M 6.640625 -37.875 "/></g></g></g><g fill="#ffffff" fill-opacity="1"><g transform="translate(553.498043, 739.038156)"><g><path d="M 12.84375 -15.796875 C 15.207031 -15.796875 17.210938 -14.972656 18.859375 -13.328125 C 20.515625 -11.679688 21.34375 -9.675781 21.34375 -7.3125 C 21.34375 -5 20.515625 -3.015625 18.859375 -1.359375 C 17.210938 0.285156 15.207031 1.109375 12.84375 1.109375 C 10.53125 1.109375 8.550781 0.285156 6.90625 -1.359375 C 5.257812 -3.015625 4.4375 -5 4.4375 -7.3125 C 4.4375 -9.675781 5.257812 -11.679688 6.90625 -13.328125 C 8.550781 -14.972656 10.53125 -15.796875 12.84375 -15.796875 Z M 12.84375 -15.796875 "/></g></g></g></svg>