<svg width="24" height="24" viewBox="0 0 24 24" fill="none" xmlns="http://www.w3.org/2000/svg">
<path d="M15.9 0H8.1C5.95272 0.00317411 3.8943 0.857584 2.37594 2.37594C0.857584 3.8943 0.00317411 5.95272 0 8.1V15.9C0 18.0483 0.853391 20.1085 2.37244 21.6276C3.89148 23.1466 5.95175 24 8.1 24H15.9C18.0483 24 20.1085 23.1466 21.6276 21.6276C23.1466 20.1085 24 18.0483 24 15.9V8.1C23.9968 5.95272 23.1424 3.8943 21.6241 2.37594C20.1057 0.857584 18.0473 0.00317411 15.9 0ZM22.2 12.6H18.672L15.432 18.024C15.3243 18.2009 15.1727 18.3469 14.9918 18.4479C14.811 18.5488 14.6071 18.6012 14.4 18.6H14.328C14.1075 18.5884 13.8945 18.5161 13.7124 18.3912C13.5303 18.2663 13.3862 18.0935 13.296 17.892L9.444 9.204L7.044 13.224C6.93631 13.4009 6.78467 13.5469 6.60383 13.6479C6.42299 13.7488 6.2191 13.8012 6.012 13.8H1.812V11.4H5.328L8.58 5.988C8.6933 5.80013 8.85595 5.64691 9.05024 5.54501C9.24454 5.44311 9.46305 5.39643 9.68202 5.41004C9.90099 5.42365 10.112 5.49703 10.2922 5.6222C10.4724 5.74737 10.6148 5.91954 10.704 6.12L14.568 14.808L16.968 10.788C17.0742 10.6089 17.2252 10.4605 17.4061 10.3574C17.5871 10.2543 17.7917 10.2 18 10.2H22.2V12.6Z" fill="white"/>
</svg>
