<svg xmlns="http://www.w3.org/2000/svg" xmlns:xlink="http://www.w3.org/1999/xlink" width="512" zoomAndPan="magnify" viewBox="0 0 384 299.999988" height="400" preserveAspectRatio="xMidYMid meet" version="1.0"><defs><g/></defs><g fill="#ffffff" fill-opacity="1"><g transform="translate(16.977271, 249.633365)"><g><path d="M 76.1875 0 L -6.703125 -197.671875 L 44.078125 -197.671875 L 93.921875 -67.8125 L 143.75 -197.671875 L 194.546875 -197.671875 L 111.65625 0 Z M 76.1875 0 "/></g></g></g><g fill="#ffffff" fill-opacity="1"><g transform="translate(156.896644, 249.633365)"><g><path d="M 5.515625 -98.953125 C 5.515625 -127.546875 15.253906 -151.742188 34.734375 -171.546875 C 54.222656 -191.359375 77.707031 -201.265625 105.1875 -201.265625 C 132.8125 -201.265625 156.285156 -191.398438 175.609375 -171.671875 C 194.941406 -151.941406 204.609375 -127.703125 204.609375 -98.953125 C 204.609375 -70.035156 195.101562 -45.710938 176.09375 -25.984375 C 157.09375 -6.265625 133.457031 3.59375 105.1875 3.59375 C 76.269531 3.59375 52.425781 -6.1875 33.65625 -25.75 C 14.894531 -45.320312 5.515625 -69.722656 5.515625 -98.953125 Z M 54.140625 -98.953125 C 54.140625 -88.566406 55.738281 -79.097656 58.9375 -70.546875 C 62.132812 -62.003906 67.722656 -54.78125 75.703125 -48.875 C 83.691406 -42.96875 93.519531 -40.015625 105.1875 -40.015625 C 121.957031 -40.015625 134.613281 -45.765625 143.15625 -57.265625 C 151.695312 -68.765625 155.96875 -82.660156 155.96875 -98.953125 C 155.96875 -115.085938 151.613281 -128.941406 142.90625 -140.515625 C 134.207031 -152.097656 121.632812 -157.890625 105.1875 -157.890625 C 88.894531 -157.890625 76.3125 -152.097656 67.4375 -140.515625 C 58.570312 -128.941406 54.140625 -115.085938 54.140625 -98.953125 Z M 54.140625 -98.953125 "/></g></g></g></svg>