<svg xmlns="http://www.w3.org/2000/svg" xmlns:xlink="http://www.w3.org/1999/xlink" width="512" zoomAndPan="magnify" viewBox="0 0 384 383.999986" height="512" preserveAspectRatio="xMidYMid meet" version="1.0"><defs><g/></defs><rect x="-38.4" width="460.8" fill="#ffffff" y="-38.399999" height="460.799983" fill-opacity="1"/><rect x="-38.4" width="460.8" fill="#000000" y="-38.399999" height="460.799983" fill-opacity="1"/><g fill="#ffffff" fill-opacity="1"><g transform="translate(107.848871, 223.679053)"><g><path d="M 36.640625 0 L -3.21875 -95.046875 L 21.203125 -95.046875 L 45.15625 -32.609375 L 69.125 -95.046875 L 93.546875 -95.046875 L 53.6875 0 Z M 36.640625 0 "/></g></g></g><g fill="#ffffff" fill-opacity="1"><g transform="translate(175.123717, 223.679053)"><g><path d="M 2.65625 -47.578125 C 2.65625 -61.328125 7.335938 -72.960938 16.703125 -82.484375 C 26.078125 -92.003906 37.367188 -96.765625 50.578125 -96.765625 C 63.859375 -96.765625 75.144531 -92.019531 84.4375 -82.53125 C 93.738281 -73.050781 98.390625 -61.398438 98.390625 -47.578125 C 98.390625 -33.679688 93.816406 -21.988281 84.671875 -12.5 C 75.535156 -3.007812 64.171875 1.734375 50.578125 1.734375 C 36.671875 1.734375 25.207031 -2.96875 16.1875 -12.375 C 7.164062 -21.789062 2.65625 -33.523438 2.65625 -47.578125 Z M 26.03125 -47.578125 C 26.03125 -42.585938 26.796875 -38.035156 28.328125 -33.921875 C 29.867188 -29.816406 32.5625 -26.34375 36.40625 -23.5 C 40.25 -20.65625 44.972656 -19.234375 50.578125 -19.234375 C 58.640625 -19.234375 64.722656 -22 68.828125 -27.53125 C 72.941406 -33.0625 75 -39.742188 75 -47.578125 C 75 -55.335938 72.90625 -62 68.71875 -67.5625 C 64.53125 -73.132812 58.484375 -75.921875 50.578125 -75.921875 C 42.742188 -75.921875 36.691406 -73.132812 32.421875 -67.5625 C 28.160156 -62 26.03125 -55.335938 26.03125 -47.578125 Z M 26.03125 -47.578125 "/></g></g></g></svg>