<svg width="12" height="12" viewBox="0 0 12 12" fill="none" xmlns="http://www.w3.org/2000/svg">
<path d="M6 12C5.18 12 4.405 11.8424 3.675 11.5272C2.945 11.212 2.3076 10.782 1.7628 10.2372C1.218 9.6924 0.788 9.055 0.4728 8.325C0.1576 7.595 0 6.82 0 6C0 5.17 0.1576 4.3926 0.4728 3.6678C0.788 2.943 1.218 2.308 1.7628 1.7628C2.3076 1.2176 2.945 0.7876 3.675 0.4728C4.405 0.158 5.18 0.0004 6 0C6.83 0 7.6076 0.1576 8.3328 0.4728C9.058 0.788 9.6928 1.218 10.2372 1.7628C10.7816 2.3076 11.2116 2.9426 11.5272 3.6678C11.8428 4.393 12.0004 5.1704 12 6C12 6.82 11.8424 7.595 11.5272 8.325C11.212 9.055 10.782 9.6926 10.2372 10.2378C9.6924 10.783 9.0574 11.213 8.3322 11.5278C7.607 11.8426 6.8296 12 6 12ZM6 10.77C6.26 10.41 6.485 10.035 6.675 9.645C6.865 9.255 7.02 8.84 7.14 8.4H4.86C4.98 8.84 5.135 9.255 5.325 9.645C5.515 10.035 5.74 10.41 6 10.77ZM4.44 10.53C4.26 10.2 4.1026 9.8574 3.9678 9.5022C3.833 9.147 3.7204 8.7796 3.63 8.4H1.86C2.15 8.9 2.5126 9.335 2.9478 9.705C3.383 10.075 3.8804 10.35 4.44 10.53ZM7.56 10.53C8.12 10.35 8.6176 10.075 9.0528 9.705C9.488 9.335 9.8504 8.9 10.14 8.4H8.37C8.28 8.78 8.1676 9.1476 8.0328 9.5028C7.898 9.858 7.7404 10.2004 7.56 10.53ZM1.35 7.2H3.39C3.36 7 3.3376 6.8026 3.3228 6.6078C3.308 6.413 3.3004 6.2104 3.3 6C3.2996 5.7896 3.3072 5.5872 3.3228 5.3928C3.3384 5.1984 3.3608 5.0008 3.39 4.8H1.35C1.3 5 1.2626 5.1976 1.2378 5.3928C1.213 5.588 1.2004 5.7904 1.2 6C1.1996 6.2096 1.2122 6.4122 1.2378 6.6078C1.2634 6.8034 1.3008 7.0008 1.35 7.2ZM4.59 7.2H7.41C7.44 7 7.4626 6.8026 7.4778 6.6078C7.493 6.413 7.5004 6.2104 7.5 6C7.4996 5.7896 7.492 5.5872 7.4772 5.3928C7.4624 5.1984 7.44 5.0008 7.41 4.8H4.59C4.56 5 4.5376 5.1976 4.5228 5.3928C4.508 5.588 4.5004 5.7904 4.5 6C4.4996 6.2096 4.5072 6.4122 4.5228 6.6078C4.5384 6.8034 4.5608 7.0008 4.59 7.2ZM8.61 7.2H10.65C10.7 7 10.7376 6.8026 10.7628 6.6078C10.788 6.413 10.8004 6.2104 10.8 6C10.7996 5.7896 10.7872 5.5872 10.7628 5.3928C10.7384 5.1984 10.7008 5.0008 10.65 4.8H8.61C8.64 5 8.6626 5.1976 8.6778 5.3928C8.693 5.588 8.7004 5.7904 8.7 6C8.6996 6.2096 8.692 6.4122 8.6772 6.6078C8.6624 6.8034 8.64 7.0008 8.61 7.2ZM8.37 3.6H10.14C9.85 3.1 9.4876 2.665 9.0528 2.295C8.618 1.925 8.1204 1.65 7.56 1.47C7.74 1.8 7.8976 2.1426 8.0328 2.4978C8.168 2.853 8.2804 3.2204 8.37 3.6ZM4.86 3.6H7.14C7.02 3.16 6.865 2.745 6.675 2.355C6.485 1.965 6.26 1.59 6 1.23C5.74 1.59 5.515 1.965 5.325 2.355C5.135 2.745 4.98 3.16 4.86 3.6ZM1.86 3.6H3.63C3.72 3.22 3.8326 2.8524 3.9678 2.4972C4.103 2.142 4.2604 1.7996 4.44 1.47C3.88 1.65 3.3824 1.925 2.9472 2.295C2.512 2.665 2.1496 3.1 1.86 3.6Z" fill="#CFB4E1"/>
</svg>
